<svg width="40" height="53" viewBox="0 0 40 53" fill="none" xmlns="http://www.w3.org/2000/svg">
<path d="M20.3948 13.1659L10.3935 23.5124L8.67139 25.3295C7.52107 26.5241 6.76069 28.061 6.49672 29.725C6.23276 31.3889 6.47842 33.0966 7.19931 34.609C7.23368 34.7965 7.27119 34.984 7.31807 35.1651C7.31807 35.2491 7.35558 35.33 7.37746 35.4108L2.28302 30.1406C0.821073 28.6251 0 26.5716 0 24.4306C0 22.2896 0.821073 20.2361 2.28302 18.7206L20.3823 0L20.4198 0.0420341C22.0919 1.79297 23.0265 4.15715 23.0194 6.61843C23.0124 9.0797 22.0644 11.4381 20.3823 13.1788" fill="#01FFC3"/>
<path d="M28.4709 21.5174L18.4696 31.8639L16.7506 33.681C15.5375 34.9337 14.7576 36.5652 14.5316 38.3229C14.3056 40.0806 14.6461 41.8663 15.5004 43.4035C15.5285 43.5231 15.5598 43.6395 15.5973 43.7527C15.6348 43.8658 15.6411 43.9046 15.6661 43.9822L10.3528 38.4857C8.8909 36.9702 8.06982 34.9167 8.06982 32.7757C8.06982 30.6347 8.8909 28.5812 10.3528 27.0657L27.8083 9.00468L28.449 8.34186C28.5178 8.41299 28.5866 8.48413 28.6459 8.55849C30.2483 10.3217 31.1239 12.6611 31.0872 15.0809C31.0504 17.5006 30.1042 19.8105 28.449 21.5207" fill="#01FFC3"/>
<path d="M36.5627 29.8754L26.5613 40.2219L24.8392 42.039C23.576 43.3477 22.786 45.0658 22.6016 46.9053C22.4173 48.7449 22.8497 50.5941 23.8266 52.143L23.8453 52.2756L23.8734 52.4599L18.4508 46.8501C16.9889 45.3347 16.1678 43.2812 16.1678 41.1402C16.1678 38.9992 16.9889 36.9456 18.4508 35.4302L35.9063 17.3691L36.5501 16.7031C36.6877 16.8454 36.8189 16.9909 36.944 17.1396C38.4548 18.9161 39.256 21.2204 39.1852 23.5854C39.1144 25.9504 38.1768 28.1991 36.5627 29.8754Z" fill="#01FFC3"/>
</svg>
